PathFileType	4	(X/Y/Z)	C:\Users\ebm\Documents\Erivelton\Erivelton\propulsion4.trc
DataRate	CameraRate	NumFrames	NumMarkers	Units	OrigDataRate	OrigDataStartFrame	OrigNumFrames
150.00	150.00	      5	28	mm	150.00	626	      1250
Frame#	Time	IJ			PX			C7			T8			RAC			RAS			RPS			RAI			RPI			RLE			RME			RRS			RUS			R3M			R5M			LAC			LAS			LPS			LAI			LPI			LLE			LME			LRS			LUS			L3M			L5M			RW			LW			V_mid_elbow_r			V_mid_elbow_l			V_mid_wrist_r			V_mid_wrist_l			V_mid_trunk_low			V_mid_trunk_upp			
		X1	Y1	Z1	X2	Y2	Z2	X3	Y3	Z3	X4	Y4	Z4	X5	Y5	Z5	X6	Y6	Z6	X7	Y7	Z7	X8	Y8	Z8	X9	Y9	Z9	X10	Y10	Z10	X11	Y11	Z11	X12	Y12	Z12	X13	Y13	Z13	X14	Y14	Z14	X15	Y15	Z15	X16	Y16	Z16	X17	Y17	Z17	X18	Y18	Z18	X19	Y19	Z19	X20	Y20	Z20	X21	Y21	Z21	X22	Y22	Z22	X23	Y23	Z23	X24	Y24	Z24	X25	Y25	Z25	X26	Y26	Z26	X27	Y27	Z27	X28	Y28	Z28	

626	4.167	1073.13464	1018.55823	-185.52545	1068.81689	841.69232	-180.38879	953.04218	1123.73743	-194.77324	853.76318	943.23035	-192.81505	991.87238	1069.00208	0.52894	965.41351	902.41626	73.87987	929.81616	935.51434	96.09570	926.55969	838.37067	105.74612	894.86469	872.30463	127.02263	845.21936	804.60065	155.54590	808.90594	779.16998	81.65972	1036.17529	617.32666	94.98364	1005.82776	606.40277	143.11960	1083.19116	544.97723	145.64479	1046.65210	541.10834	158.50648	979.03577	1053.82996	-388.18542	959.35870	900.39374	-481.68250	913.94519	915.43787	-481.01993	946.51062	830.32971	-517.92407	893.02655	843.81146	-520.74463	902.69989	773.55829	-548.55896	859.14038	744.48950	-481.73862	1096.10583	606.59656	-455.36691	1067.04065	574.31207	-515.79828	1144.54736	530.69592	-517.25269	1101.47717	520.06964	-524.65240	987.34460	304.20023	124.20757	1013.15198	300.29965	-502.79477	
627	4.173	1081.70349	1018.51874	-185.27089	1077.01428	841.61346	-180.09111	961.67584	1123.74817	-194.53091	862.12531	943.52960	-192.49573	1000.95703	1068.68860	0.90796	976.64502	901.42426	73.92643	940.96332	934.00330	96.82199	938.92688	836.82910	106.22110	907.02692	870.35126	127.99329	858.34406	802.19257	156.55846	821.52832	776.76489	83.12878	1050.99438	616.27948	95.61160	1020.30194	605.51306	144.01753	1096.90002	542.52747	146.40016	1060.24280	539.35321	159.18594	988.41132	1052.99182	-388.33710	971.17377	898.45581	-481.44122	925.88232	913.16132	-481.52414	959.48956	828.05566	-517.34296	906.08752	841.12775	-521.13599	916.64490	770.92987	-548.30322	872.96136	741.44647	-481.87390	1110.54504	604.18427	-454.95706	1081.27100	572.06604	-515.58887	1158.19275	527.42126	-517.03156	1114.92554	517.63342	-524.49646	994.89264	304.23718	124.50645	1020.67029	300.20242	-502.48163	
628	4.180	1090.22766	1018.41113	-184.99194	1085.08777	841.45667	-179.00366	970.35620	1123.68823	-194.26445	870.45703	943.88678	-192.14096	1009.97974	1068.33789	1.30627	987.87207	900.43274	74.02590	952.11096	932.54272	97.56129	951.34351	835.28601	106.57037	919.58289	868.13007	128.83043	871.66547	799.72339	158.01819	834.42908	774.20764	84.72611	1065.77515	615.09918	96.32267	1034.86768	604.25629	144.56653	1110.65588	539.97382	146.61618	1073.84998	537.59521	159.98166	997.81799	1052.17200	-388.48395	982.87909	896.69318	-480.91699	937.50281	910.71460	-481.32022	972.66699	825.94177	-516.48883	919.01874	838.14471	-521.13782	930.66437	768.22064	-547.85840	886.75854	738.43823	-481.83258	1125.06543	601.68695	-454.58008	1095.43652	569.91101	-515.43707	1171.65588	524.17206	-516.67731	1128.11755	515.13184	-524.44550	1002.44348	304.26654	124.78941	1028.23145	300.10727	-502.13681	
629	4.187	1098.81677	1018.31439	-184.74921	1093.23303	841.20374	-178.89384	979.02991	1123.61414	-193.96527	878.83539	944.16528	-191.81566	1019.11090	1067.91577	1.73959	999.16559	899.47443	74.02276	963.76587	931.04163	98.52919	963.81995	833.74561	106.79203	932.01764	866.08337	129.73180	885.03802	797.15875	158.94977	847.89124	770.94946	86.06306	1080.33984	613.48676	97.14713	1049.42981	602.99060	145.03128	1124.30444	537.18616	147.16115	1087.54028	535.72583	160.53407	1007.27039	1051.33289	-388.66180	994.52216	894.82446	-480.39221	949.17963	908.26147	-481.15463	985.87213	823.79749	-515.65289	932.00653	835.22906	-520.89764	944.63538	765.51062	-547.29810	900.12030	735.69275	-481.94009	1139.59570	599.08301	-454.33282	1109.95850	568.75116	-516.08527	1184.88184	520.76123	-516.38971	1141.33423	512.39423	-524.14124	1010.07153	304.29465	125.07681	1035.74304	300.07941	-501.96606	
630	4.193	1107.38623	1018.15057	-184.52698	1101.45715	840.98126	-178.61882	987.65747	1123.53235	-193.70796	887.19977	944.42883	-191.52411	1028.21863	1067.48914	2.10871	1010.59210	898.46021	74.03527	974.99744	929.47717	98.89288	976.42181	832.21405	107.02011	944.50781	864.36676	130.26686	898.52368	794.52423	159.54663	860.99561	768.23663	87.01375	1095.45703	612.10333	97.74564	1064.00476	601.60828	145.44307	1137.92590	534.41766	147.85095	1101.30176	533.81140	161.33365	1016.72693	1050.43945	-388.76404	1006.17212	893.02948	-479.73123	960.78522	905.82056	-480.93140	998.90356	821.54980	-514.72888	944.94604	832.23102	-520.46997	958.62970	762.74329	-546.49548	914.62537	732.81860	-480.94373	1154.36780	596.33795	-454.43152	1124.14355	566.23364	-515.93396	1198.69983	516.08472	-515.52319	1154.25024	509.59589	-523.67584	1017.68054	304.18591	125.25802	1043.29492	299.98227	-501.68204	
